Motion_pu03
version=1
nRows=16
nColumns=43
inDegrees=yes
endheader
time	pelvis_tilt	pelvis_list	pelvis_rotation	pelvis_tx	pelvis_ty	pelvis_tz	hip_flexion_r	hip_adduction_r	hip_rotation_r	knee_angle_r	ankle_angle_r	subtalar_angle_r	mtp_angle_r	hip_flexion_l	hip_adduction_l	hip_rotation_l	knee_angle_l	ankle_angle_l	subtalar_angle_l	mtp_angle_l	lumbar_extension	lumbar_bending	lumbar_rotation	neck_flexion	neck_lateral_bending	neck_rotation	arm_flex_r	arm_add_r	arm_rot_r	elbow_flex_r	pro_sup_r	wrist_flex_r	wrist_dev_r	hand_finger_flex_r	arm_flex_l	arm_add_l	arm_rot_l	elbow_flex_l	pro_sup_l	wrist_flex_l	wrist_dev_l	hand_finger_flex_l
      0.00250000	     -2.94709677	     -3.06600006	   -100.77112052	      0.00992583	      0.95084881	      0.25708135	     -5.37186646	     -5.74267268	     -8.07469127	    -11.51666245	      8.73205057	     17.03521205	     15.03041723	    -11.62906045	     -5.70484844	    -27.30205287	     -9.87412888	      9.90602079	     13.26186713	     15.74505918	     -5.22628982	      2.99154155	      5.28896676	      2.46891082	     -5.68724989	     10.12622725	     -3.80001313	    -69.35020003	    -80.82788461	     48.78610106	     94.18873886	      5.61459164	     14.94301919	    -38.69877424	    -32.13877090	    -60.75708613	    -95.47585339	     58.11584575	     79.52597770	     -4.95091294	     14.91938029	     19.69483967
      0.00500000	     -2.94518176	     -3.06566247	   -100.77286285	      0.00994032	      0.95078607	      0.25708310	     -5.37220724	     -5.74289457	     -8.07443114	    -11.51675773	      8.73228215	     17.03559076	     15.03055660	    -11.62890666	     -5.70468537	    -27.30233163	     -9.87412879	      9.90589506	     13.26156842	     15.74507864	     -5.22721523	      2.99407185	      5.28778287	      2.46871753	     -5.68734287	     10.12589795	     -3.79930452	    -69.34909984	    -80.82714747	     48.78656217	     94.18843343	      5.61438151	     14.94278187	    -38.69886170	    -32.13896315	    -60.75803456	    -95.47603621	     58.11638978	     79.52601900	     -4.95112827	     14.91894444	     19.69472441
      0.00750000	     -2.94397948	     -3.06513152	   -100.77522812	      0.00996508	      0.95072952	      0.25708344	     -5.37251761	     -5.74401796	     -8.07405445	    -11.51674719	      8.73263167	     17.03610406	     15.03074734	    -11.62864581	     -5.70375629	    -27.30266898	     -9.87420634	      9.90578128	     13.26121829	     15.74511433	     -5.22853987	      2.99800959	      5.28602179	      2.46843672	     -5.68758031	     10.12550498	     -3.79856925	    -69.34735114	    -80.82608095	     48.78814503	     94.18802820	      5.61404112	     14.94225082	    -38.69899216	    -32.13919588	    -60.75975320	    -95.47635705	     58.11719167	     79.52609396	     -4.95142375	     14.91838509	     19.69457855
      0.01000000	     -2.94385042	     -3.06507212	   -100.77601916	      0.00997689	      0.95070741	      0.25708499	     -5.37254622	     -5.74448065	     -8.07392366	    -11.51669794	      8.73275491	     17.03628620	     15.03081241	    -11.62852421	     -5.70333182	    -27.30277476	     -9.87423087	      9.90575373	     13.26110993	     15.74512786	     -5.22899410	      2.99934484	      5.28542031	      2.46833543	     -5.68769086	     10.12538591	     -3.79836412	    -69.34673314	    -80.82570341	     48.78893331	     94.18789026	      5.61391150	     14.94201455	    -38.69903960	    -32.13927295	    -60.76037680	    -95.47646574	     58.11746222	     79.52612642	     -4.95152579	     14.91820673	     19.69453136
      0.01250000	     -2.96588081	     -3.09235235	   -100.83900934	      0.01009428	      0.95084367	      0.25698058	     -5.38284342	     -5.75677504	     -8.00265183	    -11.51989610	      8.79539319	     17.15945921	     15.06814781	    -11.65837116	     -5.68450405	    -27.35905167	     -9.87729857	      9.91174662	     13.18497119	     15.75465789	     -5.28243995	      3.07110006	      5.27336757	      2.41724318	     -5.77864184	     10.07422289	     -3.64053869	    -69.20389966	    -80.67477622	     49.24347970	     94.11195052	      5.51771957	     14.80931063	    -38.73104542	    -32.22102475	    -60.65976351	    -95.49718707	     58.07188940	     79.55748300	     -5.01513824	     14.85974156	     19.66832852
      0.01500000	     -2.96544809	     -3.09225956	   -100.83989535	      0.01009895	      0.95083822	      0.25698484	     -5.38293834	     -5.75659209	     -8.00259067	    -11.51997962	      8.79538490	     17.15964442	     15.06819690	    -11.65860854	     -5.68463515	    -27.35911882	     -9.87732424	      9.91168888	     13.18486371	     15.75466686	     -5.28229017	      3.07121669	      5.27264034	      2.41722562	     -5.77892715	     10.07422406	     -3.64009821	    -69.20400999	    -80.67490089	     49.24334393	     94.11186498	      5.51744373	     14.80933168	    -38.73112521	    -32.22109075	    -60.66060386	    -95.49747366	     58.07233880	     79.55749445	     -5.01526156	     14.85951375	     19.66828508
      0.01750000	     -2.96562318	     -3.09211941	   -100.84086400	      0.01010797	      0.95084611	      0.25698941	     -5.38297730	     -5.75642378	     -8.00253864	    -11.52002965	      8.79538662	     17.15982789	     15.06824682	    -11.65885114	     -5.68466836	    -27.35918480	     -9.87737033	      9.91163351	     13.18476322	     15.75467623	     -5.28205202	      3.07087711	      5.27179301	      2.41720301	     -5.77923313	     10.07423389	     -3.63961663	    -69.20441291	    -80.67507616	     49.24335988	     94.11177052	      5.51716111	     14.80931999	    -38.73120734	    -32.22115248	    -60.66153441	    -95.49775544	     58.07283604	     79.55750923	     -5.01538828	     14.85927997	     19.66824130
      0.02000000	     -2.96621335	     -3.09199116	   -100.84182336	      0.01011476	      0.95086270	      0.25699431	     -5.38294956	     -5.75623077	     -8.00249697	    -11.52004607	      8.79539318	     17.16000763	     15.06829640	    -11.65910034	     -5.68462949	    -27.35925067	     -9.87743339	      9.91157736	     13.18466762	     15.75468523	     -5.28172901	      3.07017100	      5.27089202	      2.41717571	     -5.77955094	     10.07425178	     -3.63908620	    -69.20512165	    -80.67530143	     49.24347635	     94.11166675	      5.51687835	     14.80928793	    -38.73129019	    -32.22121169	    -60.66252006	    -95.49803291	     58.07338136	     79.55752643	     -5.01551766	     14.85904004	     19.66819731
      0.02250000	     -2.96701830	     -3.09188043	   -100.84274689	      0.01011923	      0.95088379	      0.25699982	     -5.38287240	     -5.75596048	     -8.00246472	    -11.52004166	      8.79539920	     17.16018452	     15.06834489	    -11.65936774	     -5.68457104	    -27.35931732	     -9.87750863	      9.91151892	     13.18457246	     15.75469330	     -5.28133638	      3.06916625	      5.26998115	      2.41714308	     -5.77987870	     10.07427733	     -3.63850570	    -69.20611393	    -80.67557009	     49.24365755	     94.11155326	      5.51660086	     14.80924464	    -38.73137245	    -32.22126826	    -60.66355039	    -95.49830847	     58.07397462	     79.55754518	     -5.01564925	     14.85879291	     19.66815297
      0.02500000	     -2.96428602	     -3.09303834	   -100.84396758	      0.01002255	      0.95079066	      0.25703180	     -5.38361555	     -5.74531146	     -8.00099906	    -11.52140556	      8.79559493	     17.16856904	     15.07075376	    -11.67048087	     -5.68740706	    -27.36298503	     -9.87888145	      9.90868332	     13.17943898	     15.75503292	     -5.26757136	      3.05483215	      5.27232070	      2.41452077	     -5.79556568	     10.07591373	     -3.61152973	    -69.23666572	    -80.68056025	     49.24374946	     94.10542188	      5.50525509	     14.80953975	    -38.73480651	    -32.22621006	    -60.70266651	    -95.51700094	     58.09843901	     79.55896150	     -5.02350462	     14.84712218	     19.66566322
      0.02750000	     -2.96531930	     -3.09280541	   -100.84451211	      0.01003408	      0.95081508	      0.25704124	     -5.38375554	     -5.74568357	     -8.00097968	    -11.52144178	      8.79565259	     17.16868535	     15.07080594	    -11.67026360	     -5.68742643	    -27.36304980	     -9.87873077	      9.90867337	     13.17935367	     15.75504348	     -5.26760529	      3.05425249	      5.27197890	      2.41441997	     -5.79586693	     10.07594161	     -3.61111329	    -69.23664553	    -80.68059754	     49.24341903	     94.10530455	      5.50505923	     14.80963863	    -38.73486799	    -32.22634241	    -60.70300468	    -95.51717751	     58.09862617	     79.55901440	     -5.02364536	     14.84696364	     19.66561394
      0.03000000	     -2.96614713	     -3.09258340	   -100.84504220	      0.01003501	      0.95083392	      0.25704826	     -5.38388880	     -5.74593717	     -8.00096157	    -11.52148071	      8.79569613	     17.16880644	     15.07085623	    -11.67011681	     -5.68741521	    -27.36311468	     -9.87861476	      9.90865690	     13.17926475	     15.75505306	     -5.26760345	      3.05371849	      5.27158492	      2.41431523	     -5.79617430	     10.07597543	     -3.61065464	    -69.23682603	    -80.68067228	     49.24313690	     94.10517908	      5.50486703	     14.80972791	    -38.73492967	    -32.22646868	    -60.70342678	    -95.51734611	     58.09888719	     79.55906559	     -5.02378212	     14.84679327	     19.66556542
      0.03250000	     -2.96673216	     -3.09233534	   -100.84557065	      0.01003446	      0.95084835	      0.25705609	     -5.38402175	     -5.74603198	     -8.00094237	    -11.52152948	      8.79572447	     17.16893685	     15.07090497	    -11.67002988	     -5.68743313	    -27.36317967	     -9.87851705	      9.90863627	     13.17916986	     15.75506188	     -5.26760252	      3.05317795	      5.27118707	      2.41420433	     -5.79649469	     10.07601589	     -3.61015630	    -69.23717773	    -80.68076894	     49.24292250	     94.10504637	      5.50467903	     14.80980283	    -38.73499127	    -32.22658916	    -60.70395520	    -95.51751178	     58.09921697	     79.55911496	     -5.02391569	     14.84661098	     19.66551693
      0.03500000	     -2.96705759	     -3.09208951	   -100.84606634	      0.01003295	      0.95085901	      0.25706405	     -5.38415163	     -5.74598528	     -8.00092023	    -11.52158814	      8.79573766	     17.16907749	     15.07095241	    -11.66999339	     -5.68747246	    -27.36324539	     -9.87843567	      9.90861221	     13.17907059	     15.75507031	     -5.26759378	      3.05268350	      5.27081943	      2.41408848	     -5.79682878	     10.07606328	     -3.60962278	    -69.23767476	    -80.68088115	     49.24278299	     94.10490844	      5.50449333	     14.80985971	    -38.73505298	    -32.22670665	    -60.70459432	    -95.51768180	     58.09961268	     79.55916216	     -5.02404664	     14.84641705	     19.66546840
      0.03750000	     -2.96714753	     -3.09187035	   -100.84651373	      0.01003128	      0.95086671	      0.25707209	     -5.38426818	     -5.74581354	     -8.00089387	    -11.52165463	      8.79573635	     17.16922778	     15.07099867	    -11.66999709	     -5.68752916	    -27.36331253	     -9.87836744	      9.90858518	     13.17896859	     15.75507863	     -5.26757069	      3.05224212	      5.27049630	      2.41396753	     -5.79717717	     10.07611776	     -3.60905657	    -69.23830884	    -80.68100717	     49.24272649	     94.10476710	      5.50430790	     14.80989442	    -38.73511487	    -32.22682407	    -60.70534097	    -95.51785761	     58.10006880	     79.55920716	     -5.02417506	     14.84621245	     19.66541974
      0.04000000	     -2.96706009	     -3.09170137	   -100.84691543	      0.01003083	      0.95087272	      0.25708013	     -5.38435716	     -5.74553594	     -8.00086130	    -11.52172576	      8.79572269	     17.16938630	     15.07104398	    -11.67003241	     -5.68760295	    -27.36338263	     -9.87830929	      9.90855527	     13.17886528	     15.75508689	     -5.26752134	      3.05182836	      5.27021126	      2.41384137	     -5.79754032	     10.07617983	     -3.60845990	    -69.23908110	    -80.68114920	     49.24275616	     94.10462431	      5.50412033	     14.80990438	    -38.73517714	    -32.22694332	    -60.70619173	    -95.51803941	     58.10058026	     79.55925011	     -5.02430108	     14.84599826	     19.66537083
